Coordinates
version=1
nRows=10
nColumns=63
inDegrees=yes

Units are S.I. units (second, meters, Newtons, ...)
If the header above contains a line with 'inDegrees', this indicates whether rotational values are in degrees (yes) or radians (no).

endheader
time	pelvis_tilt	pelvis_list	pelvis_rotation	pelvis_tx	pelvis_ty	pelvis_tz	hip_flexion_r	hip_adduction_r	hip_rotation_r	knee_angle_r	knee_angle_r_beta	ankle_angle_r	subtalar_angle_r	mtp_angle_r	hip_flexion_l	hip_adduction_l	hip_rotation_l	knee_angle_l	knee_angle_l_beta	ankle_angle_l	subtalar_angle_l	mtp_angle_l	L5_S1_Flex_Ext	L5_S1_Lat_Bending	L5_S1_axial_rotation	L4_L5_Flex_Ext	L4_L5_Lat_Bending	L4_L5_axial_rotation	L3_L4_Flex_Ext	L3_L4_Lat_Bending	L3_L4_axial_rotation	L2_L3_Flex_Ext	L2_L3_Lat_Bending	L2_L3_axial_rotation	L1_L2_Flex_Ext	L1_L2_Lat_Bending	L1_L2_axial_rotation	L1_T12_Flex_Ext	L1_T12_Lat_Bending	L1_T12_axial_rotation	Abs_r3	Abs_r2	Abs_r1	Abs_t1	Abs_t2	neck_flexion	neck_bending	neck_rotation	arm_flex_r	arm_add_r	arm_rot_r	elbow_flex_r	pro_sup_r	wrist_flex_r	wrist_dev_r	arm_flex_l	arm_add_l	arm_rot_l	elbow_flex_l	pro_sup_l	wrist_flex_l	wrist_dev_l
      0.00000000	     -0.57381185	     -3.27123322	     95.97973100	      0.18524232	      0.75728927	      0.77990451	      2.55602327	     -0.75217331	    -14.03681722	      7.08895721	      0.12372564	     30.17781043	     13.27874172	      0.00000000	      3.33881842	      2.59569229	     16.09714074	      3.80127970	      0.06634485	     27.18810314	    -13.46677641	      0.00000000	      0.30366556	      0.08598533	     -0.82099349	      0.56393731	      0.11436049	     -0.87230559	      0.49889214	      0.20906473	     -0.87230559	      0.34705937	      0.20906473	     -0.71836931	      0.28198384	      0.17534129	     -0.66705721	      0.17351450	      0.13319128	     -0.61574512	      2.16905271	      0.97268325	     -4.56611951	      0.00000000	      0.00000000	     26.85568417	      1.66720094	      9.19682742	     22.10428716	    -15.24118146	     81.37337380	     59.52427277	     40.81002491	      4.75073986	      5.49625621	      4.44191854	    -12.35251901	     41.52026728	     69.86080331	     77.58503633	      4.22981132	     13.78998409
      0.01666667	     -0.83951575	     -3.30788215	     95.83305972	      0.18491235	      0.75766609	      0.77988362	      2.44996521	     -1.09933232	    -14.06485611	      7.03006378	      0.12269776	     30.32740910	     13.41229066	      0.00000000	      3.37060411	      2.90271368	     16.41974105	      3.43763410	      0.05999803	     27.84059067	    -13.30311073	      0.00000000	      0.31225511	      0.06038120	     -0.81883292	      0.57988897	      0.08030700	     -0.87000997	      0.51300392	      0.14681085	     -0.87000997	      0.35687637	      0.14681085	     -0.71647880	      0.28996010	      0.12312934	     -0.66530174	      0.17842257	      0.09353048	     -0.61412469	      2.23040704	      0.68304421	     -4.55410303	      0.00000000	      0.00000000	     26.78193161	      1.67626345	      9.27005220	     22.20809471	    -15.30177215	     81.31660608	     59.68799335	     40.83985168	      4.66744212	      5.14587873	      4.23931870	    -12.50107233	     41.45879566	     69.92567281	     77.62084788	      4.56779736	     14.06442059
      0.03333333	     -1.34090161	     -3.27264096	     95.89523935	      0.18523495	      0.75809149	      0.77989783	      2.23523799	     -1.65695948	    -14.62236051	      6.99142069	      0.12202331	     30.69170704	     14.10317381	      0.00000000	      3.16383018	      3.36253580	     16.43414985	      2.82802855	      0.04935841	     27.91516125	    -12.78148028	      0.00000000	      0.30356099	     -0.00801419	     -0.82345665	      0.56374312	     -0.01065887	     -0.87492269	      0.49872035	     -0.01948569	     -0.87492269	      0.34693986	     -0.01948569	     -0.72052457	      0.28188674	     -0.01634253	     -0.66905853	      0.17345475	     -0.01241397	     -0.61759249	      2.16830580	     -0.09065808	     -4.57981887	      0.00000000	      0.00000000	     26.65541191	      1.95043686	      9.10618030	     22.08208246	    -15.00986618	     81.25190220	     59.47909047	     40.83735312	      3.85360447	      3.60400431	      4.19550513	    -12.82123216	     41.17376774	     70.08122657	     77.82568565	      6.18782821	     15.18294638
      0.05000000	     -1.52114613	     -3.27087618	     95.88591112	      0.18501601	      0.75836550	      0.78039348	      2.19640414	     -1.97865187	    -15.86048714	      7.08904637	      0.12372720	     30.95912727	     15.75191145	      0.00000000	      3.37101551	      3.55036238	     14.64748193	      2.95372612	      0.05155225	     28.96481978	     -9.97488392	      0.00000000	      0.29813632	     -0.03073772	     -0.78746669	      0.55366896	     -0.04088117	     -0.83668336	      0.48980816	     -0.07473570	     -0.83668336	      0.34074000	     -0.07473570	     -0.68903335	      0.27684939	     -0.06268037	     -0.63981669	      0.17035509	     -0.04761273	     -0.59060002	      2.12955791	     -0.34771129	     -4.37965349	      0.00000000	      0.00000000	     26.59857277	      1.96105113	      8.64619434	     22.27314603	    -15.04707805	     81.76221153	     59.48889813	     39.97189576	      2.83727646	      2.56033634	      4.28693632	    -12.71210286	     40.96169119	     69.76616794	     78.56485552	      7.56731701	     15.21597648
      0.06666667	     -1.74372198	     -3.19678243	     96.00091388	      0.18501699	      0.75863295	      0.78072585	      2.03631606	     -2.24987266	    -16.45993512	      7.10672263	      0.12403571	     31.15591248	     16.45412574	      0.00000000	      3.33262299	      3.77106859	     14.55653237	      2.84421122	      0.04964085	     29.19144993	     -9.50525874	      0.00000000	      0.28326975	     -0.06094116	     -0.71925185	      0.52606025	     -0.08105174	     -0.76420509	      0.46538387	     -0.14817234	     -0.76420509	      0.32374900	     -0.14817234	     -0.62934537	      0.26304429	     -0.12427121	     -0.58439213	      0.16186033	     -0.09439786	     -0.53943889	      2.02336749	     -0.68937858	     -4.00026303	      0.00000000	      0.00000000	     26.51350091	      1.74285733	      8.05506724	     22.01712337	    -15.07776028	     81.26463755	     59.46122672	     38.69362163	      2.47050851	      2.92716386	      4.94399336	    -12.96584705	     42.19826148	     69.51680107	     77.65379676	      7.15250026	     14.90774920
      0.08333333	     -1.93909010	     -3.07817404	     95.81855514	      0.18560224	      0.75890464	      0.78115208	      1.88200221	     -2.38451678	    -15.46114880	      7.05269078	      0.12309268	     31.09975743	     15.57392750	      0.00000000	      3.29511450	      3.89249565	     12.33104290	      2.88654472	      0.05037971	     29.91267699	     -6.55070121	      0.00000000	      0.25912040	     -0.08529910	     -0.59919911	      0.48121250	     -0.11344780	     -0.63664905	      0.42570891	     -0.20739622	     -0.63664905	      0.29614871	     -0.20739622	     -0.52429922	      0.24061921	     -0.17394192	     -0.48684928	      0.14806140	     -0.13212830	     -0.44939933	      1.85087114	     -0.96492044	     -3.33256569	      0.00000000	      0.00000000	     26.45140950	      1.66439584	      7.79150520	     21.71387916	    -15.04459993	     80.56253038	     59.26153811	     38.75924134	      2.20475253	      3.25892889	      5.71038598	    -13.22176985	     43.61502741	     69.24932458	     76.03373535	      6.35320783	     14.55874626
      0.10000000	     -2.05671984	     -3.04419668	     95.97903699	      0.18551889	      0.75886802	      0.78133934	      1.80948694	     -2.56948808	    -16.41927533	      7.13622730	      0.12455066	     31.36883508	     16.70257434	      0.00000000	      3.18101551	      4.06628315	     14.86701367	      2.68919539	      0.04693531	     29.17447809	     -9.88429059	      0.00000000	      0.25969352	     -0.10172724	     -0.58512614	      0.48227684	     -0.13529723	     -0.62169653	      0.42665048	     -0.24733961	     -0.62169653	      0.29680372	     -0.24733961	     -0.51198538	      0.24115140	     -0.20744219	     -0.47541499	      0.14838888	     -0.15757550	     -0.43884461	      1.85496485	     -1.15075889	     -3.25429607	      0.00000000	      0.00000000	     26.25595954	      1.51180919	      7.40900203	     21.64221951	    -14.99333999	     80.55490249	     59.29632964	     36.30429810	      1.63369326	      4.17631477	      6.13385072	    -13.36184133	     44.36670442	     69.02934269	     75.51049983	      5.95143330	     14.14323621
      0.11666667	     -2.10877502	     -2.94522786	     95.87399419	      0.18576184	      0.75887690	      0.78155665	      1.72883137	     -2.61116547	    -16.08853257	      7.18047592	      0.12532295	     31.46537625	     16.56379601	      0.00000000	      3.04869306	      4.11640161	     15.42749085	      2.63759898	      0.04603479	     29.00349860	    -10.78067811	      0.00000000	      0.25189037	     -0.10654975	     -0.53888084	      0.46778561	     -0.14171117	     -0.57256089	      0.41383070	     -0.25906507	     -0.57256089	      0.28788551	     -0.25906507	     -0.47152074	      0.23390540	     -0.21727626	     -0.43784068	      0.14393016	     -0.16504557	     -0.40416063	      1.79922775	     -1.20531212	     -2.99709357	      0.00000000	      0.00000000	     26.08002813	      1.34724925	      7.13905246	     21.61508322	    -14.93699022	     80.48704477	     59.17542694	     35.37833827	      1.42428101	      4.73951313	      6.52489535	    -13.42758981	     45.01487644	     68.82143465	     74.45728947	      5.33383297	     14.03536549
      0.13333333	     -2.11418638	     -2.83500898	     95.59169190	      0.18615445	      0.75880828	      0.78174649	      1.70747512	     -2.61990169	    -15.72539554	      7.30085848	      0.12742402	     31.57463393	     16.58545036	      0.00000000	      2.98343855	      4.07752215	     13.69399081	      2.79857410	      0.04884433	     29.64755215	     -8.57541205	      0.00000000	      0.24688973	     -0.10183357	     -0.49715043	      0.45849892	     -0.13543864	     -0.52822233	      0.40561514	     -0.24759814	     -0.52822233	      0.28217028	     -0.24759814	     -0.43500663	      0.22926181	     -0.20765901	     -0.40393472	      0.14107279	     -0.15774020	     -0.37286282	      1.76350868	     -1.15196168	     -2.76500155	      0.00000000	      0.00000000	     25.88513335	      1.17200234	      7.06657668	     21.68382078	    -14.87810429	     80.47663274	     59.04423449	     35.59786328	      1.50590502	      5.17484776	      6.59041063	    -13.38903211	     45.03886679	     68.77516141	     73.77786202	      4.89372044	     14.29423318
      0.15000000	     -2.04880696	     -2.72389346	     95.54940917	      0.18615821	      0.75865853	      0.78206227	      1.61971293	     -2.55018253	    -15.52621698	      7.32031494	      0.12776360	     31.54143876	     16.43821173	      0.00000000	      2.97112846	      4.00952715	     12.93390364	      3.08493500	      0.05384227	     30.00364120	     -7.57702348	      0.00000000	      0.24233400	     -0.08500160	     -0.58372021	      0.45003846	     -0.11305213	     -0.62020272	      0.39813052	     -0.20667288	     -0.62020272	      0.27696352	     -0.20667288	     -0.51075518	      0.22503135	     -0.17333526	     -0.47427267	      0.13846965	     -0.13166748	     -0.43779015	      1.73096750	     -0.96155507	     -3.24647667	      0.00000000	      0.00000000	     25.68534639	      1.24667545	      7.69390918	     22.29354333	    -14.70601739	     81.50905202	     58.93540547	     34.95338011	      1.81760175	      5.16873167	      5.98208532	    -13.22339239	     43.73775237	     68.93378594	     74.08261304	      5.26630405	     14.55640879
